<?xml version="1.0" encoding="UTF-8" standalone="no"?><!DOCTYPE svg PUBLIC "-//W3C//DTD SVG 1.1//EN" "http://www.w3.org/Graphics/SVG/1.1/DTD/svg11.dtd"><!-- Generated by graphviz version 2.40.1 (20161225.0304)
 --><!-- Title: GaussEliminate Pages: 1 --><svg xmlns="http://www.w3.org/2000/svg" xmlns:xlink="http://www.w3.org/1999/xlink" width="400pt" height="1061pt" viewBox="0.00 0.00 400.02 1060.60">
<g id="graph0" class="graph" transform="scale(1 1) rotate(0) translate(4 1056.6)">
<title>GaussEliminate</title>
<polygon fill="#ffffff" stroke="transparent" points="-4,4 -4,-1056.6 396.0175,-1056.6 396.0175,4 -4,4"/>
<!-- start -->
<g id="node1" class="node">
<title>start</title>
<polygon fill="#a5d6a7" stroke="#000000" points="251.3118,-1052.6 124.4042,-1052.6 124.4042,-1016.6 251.3118,-1016.6 251.3118,-1052.6"/>
<text text-anchor="middle" x="187.858" y="-1030.4" font-family="Helvetica,sans-Serif" font-size="14.00" fill="#000000">gauss_eliminate()</text>
</g>
<!-- check_valid -->
<g id="node2" class="node">
<title>check_valid</title>
<polygon fill="#ffe082" stroke="#000000" points="187.858,-979.6 .1419,-961.6 187.858,-943.6 375.5742,-961.6 187.858,-979.6"/>
<text text-anchor="middle" x="187.858" y="-957.4" font-family="Helvetica,sans-Serif" font-size="14.00" fill="#000000">¿mat_A válida y cuadrada?</text>
</g>
<!-- start&#45;&gt;check_valid -->
<g id="edge1" class="edge">
<title>start-&gt;check_valid</title>
<path fill="none" stroke="#000000" d="M187.858,-1016.5551C187.858,-1008.4828 187.858,-998.7764 187.858,-989.7817"/>
<polygon fill="#000000" stroke="#000000" points="191.3581,-989.6903 187.858,-979.6904 184.3581,-989.6904 191.3581,-989.6903"/>
</g>
<!-- error -->
<g id="node3" class="node">
<title>error</title>
<polygon fill="#ef9a9a" stroke="#000000" points="194.858,-890.8 140.858,-890.8 140.858,-854.8 194.858,-854.8 194.858,-890.8"/>
<text text-anchor="middle" x="167.858" y="-868.6" font-family="Helvetica,sans-Serif" font-size="14.00" fill="#000000">Error</text>
</g>
<!-- check_valid&#45;&gt;error -->
<g id="edge2" class="edge">
<title>check_valid-&gt;error</title>
<path fill="none" stroke="#000000" d="M183.8107,-943.63C181.0638,-931.4338 177.3748,-915.0543 174.2361,-901.1187"/>
<polygon fill="#000000" stroke="#000000" points="177.5797,-900.0346 171.968,-891.0481 170.7508,-901.5727 177.5797,-900.0346"/>
<text text-anchor="middle" x="188.4113" y="-913" font-family="Times,serif" font-size="14.00" fill="#000000">No</text>
</g>
<!-- copy -->
<g id="node4" class="node">
<title>copy</title>
<polygon fill="#90caf9" stroke="#000000" points="344.4829,-890.8 213.2332,-890.8 213.2332,-854.8 344.4829,-854.8 344.4829,-890.8"/>
<text text-anchor="middle" x="278.858" y="-868.6" font-family="Helvetica,sans-Serif" font-size="14.00" fill="#000000">Copiar A → mat_R</text>
</g>
<!-- check_valid&#45;&gt;copy -->
<g id="edge3" class="edge">
<title>check_valid-&gt;copy</title>
<path fill="none" stroke="#000000" d="M204.9744,-944.8974C218.5135,-931.6857 237.6351,-913.0263 253.0332,-898.0004"/>
<polygon fill="#000000" stroke="#000000" points="255.5398,-900.4448 260.2524,-890.9558 250.6509,-895.4349 255.5398,-900.4448"/>
<text text-anchor="middle" x="250.4099" y="-913" font-family="Times,serif" font-size="14.00" fill="#000000">Sí</text>
</g>
<!-- init -->
<g id="node5" class="node">
<title>init</title>
<polygon fill="#90caf9" stroke="#000000" points="333.0706,-818.0014 224.6454,-818.0014 224.6454,-759.1986 333.0706,-759.1986 333.0706,-818.0014"/>
<text text-anchor="middle" x="278.858" y="-801.2" font-family="Helvetica,sans-Serif" font-size="14.00" fill="#000000">pivot_ant = 1.0</text>
<text text-anchor="middle" x="278.858" y="-784.4" font-family="Helvetica,sans-Serif" font-size="14.00" fill="#000000">signo = +1</text>
<text text-anchor="middle" x="278.858" y="-767.6" font-family="Helvetica,sans-Serif" font-size="14.00" fill="#000000">k = 0</text>
</g>
<!-- copy&#45;&gt;init -->
<g id="edge4" class="edge">
<title>copy-&gt;init</title>
<path fill="none" stroke="#000000" d="M278.858,-854.5299C278.858,-846.7987 278.858,-837.4689 278.858,-828.2922"/>
<polygon fill="#000000" stroke="#000000" points="282.3581,-828.0897 278.858,-818.0897 275.3581,-828.0898 282.3581,-828.0897"/>
</g>
<!-- check_k -->
<g id="node6" class="node">
<title>check_k</title>
<polygon fill="#ffe082" stroke="#000000" points="278.858,-722.4 221.8971,-704.4 278.858,-686.4 335.8189,-704.4 278.858,-722.4"/>
<text text-anchor="middle" x="278.858" y="-700.2" font-family="Helvetica,sans-Serif" font-size="14.00" fill="#000000">k &lt; n ?</text>
</g>
<!-- init&#45;&gt;check_k -->
<g id="edge5" class="edge">
<title>init-&gt;check_k</title>
<path fill="none" stroke="#000000" d="M278.858,-759.1509C278.858,-750.6147 278.858,-741.3135 278.858,-732.8402"/>
<polygon fill="#000000" stroke="#000000" points="282.3581,-732.6701 278.858,-722.6701 275.3581,-732.6702 282.3581,-732.6701"/>
</g>
<!-- end -->
<g id="node7" class="node">
<title>end</title>
<polygon fill="#a5d6a7" stroke="#000000" points="195.8105,-633.8014 75.9056,-633.8014 75.9056,-574.9986 195.8105,-574.9986 195.8105,-633.8014"/>
<text text-anchor="middle" x="135.858" y="-617" font-family="Helvetica,sans-Serif" font-size="14.00" fill="#000000">RETORNAR</text>
<text text-anchor="middle" x="135.858" y="-600.2" font-family="Helvetica,sans-Serif" font-size="14.00" fill="#000000">mat_R triangular</text>
<text text-anchor="middle" x="135.858" y="-583.4" font-family="Helvetica,sans-Serif" font-size="14.00" fill="#000000">x1 = signo</text>
</g>
<!-- check_k&#45;&gt;end -->
<g id="edge6" class="edge">
<title>check_k-&gt;end</title>
<path fill="none" stroke="#000000" d="M261.0361,-691.9371C242.3223,-678.8505 212.0473,-657.6792 185.959,-639.4356"/>
<polygon fill="#000000" stroke="#000000" points="187.8567,-636.4918 177.6558,-633.6292 183.8451,-642.2283 187.8567,-636.4918"/>
<text text-anchor="middle" x="233.4113" y="-655.8" font-family="Times,serif" font-size="14.00" fill="#000000">No</text>
</g>
<!-- pivot -->
<g id="node8" class="node">
<title>pivot</title>
<polygon fill="#90caf9" stroke="#000000" points="344.2161,-622.4 213.4999,-622.4 213.4999,-586.4 344.2161,-586.4 344.2161,-622.4"/>
<text text-anchor="middle" x="278.858" y="-600.2" font-family="Helvetica,sans-Serif" font-size="14.00" fill="#000000">Leer pivote M[k][k]</text>
</g>
<!-- check_k&#45;&gt;pivot -->
<g id="edge7" class="edge">
<title>check_k-&gt;pivot</title>
<path fill="none" stroke="#000000" d="M278.858,-686.0585C278.858,-671.1164 278.858,-649.7665 278.858,-632.6446"/>
<polygon fill="#000000" stroke="#000000" points="282.3581,-632.6252 278.858,-622.6253 275.3581,-632.6253 282.3581,-632.6252"/>
<text text-anchor="middle" x="287.4099" y="-655.8" font-family="Times,serif" font-size="14.00" fill="#000000">Sí</text>
</g>
<!-- check_pivot -->
<g id="node9" class="node">
<title>check_pivot</title>
<polygon fill="#ffe082" stroke="#000000" points="258.858,-538.2 155.0569,-520.2 258.858,-502.2 362.6591,-520.2 258.858,-538.2"/>
<text text-anchor="middle" x="258.858" y="-516" font-family="Helvetica,sans-Serif" font-size="14.00" fill="#000000">¿pivote == 0?</text>
</g>
<!-- pivot&#45;&gt;check_pivot -->
<g id="edge8" class="edge">
<title>pivot-&gt;check_pivot</title>
<path fill="none" stroke="#000000" d="M274.5183,-586.1299C271.8436,-574.8694 268.3634,-560.2176 265.3632,-547.5869"/>
<polygon fill="#000000" stroke="#000000" points="268.7006,-546.4917 262.9842,-537.5713 261.89,-548.1095 268.7006,-546.4917"/>
</g>
<!-- find_row -->
<g id="node10" class="node">
<title>find_row</title>
<polygon fill="#90caf9" stroke="#000000" points="296.379,-449.2019 189.337,-449.2019 189.337,-407.9981 296.379,-407.9981 296.379,-449.2019"/>
<text text-anchor="middle" x="242.858" y="-432.8" font-family="Helvetica,sans-Serif" font-size="14.00" fill="#000000">Buscar fila i&gt;k</text>
<text text-anchor="middle" x="242.858" y="-416" font-family="Helvetica,sans-Serif" font-size="14.00" fill="#000000">con M[i][k] ≠ 0</text>
</g>
<!-- check_pivot&#45;&gt;find_row -->
<g id="edge9" class="edge">
<title>check_pivot-&gt;find_row</title>
<path fill="none" stroke="#000000" d="M255.7731,-502.5386C253.6393,-490.323 250.744,-473.7472 248.2355,-459.3859"/>
<polygon fill="#000000" stroke="#000000" points="251.6622,-458.6627 246.4937,-449.4141 244.7666,-459.8672 251.6622,-458.6627"/>
<text text-anchor="middle" x="261.4099" y="-471.6" font-family="Times,serif" font-size="14.00" fill="#000000">Sí</text>
</g>
<!-- eliminate -->
<g id="node14" class="node">
<title>eliminate</title>
<polygon fill="#90caf9" stroke="#000000" points="362.3923,-203.3002 189.3238,-203.3002 189.3238,-78.6998 362.3923,-78.6998 362.3923,-203.3002"/>
<text text-anchor="middle" x="275.858" y="-186.8" font-family="Helvetica,sans-Serif" font-size="14.00" fill="#000000">Para i=k+1..n-1</text>
<text text-anchor="middle" x="275.858" y="-170" font-family="Helvetica,sans-Serif" font-size="14.00" fill="#000000">Para j=0..n-1</text>
<text text-anchor="middle" x="275.858" y="-137.2" font-family="Helvetica,sans-Serif" font-size="14.00" fill="#000000">term1 = pivot * M[i][j]</text>
<text text-anchor="middle" x="275.858" y="-120.4" font-family="Helvetica,sans-Serif" font-size="14.00" fill="#000000">term2 = M[i][k] * M[k][j]</text>
<text text-anchor="middle" x="275.858" y="-103.6" font-family="Helvetica,sans-Serif" font-size="14.00" fill="#000000">numer = term1 - term2</text>
<text text-anchor="middle" x="275.858" y="-86.8" font-family="Helvetica,sans-Serif" font-size="14.00" fill="#000000">M[i][j] = numer / pivot_ant</text>
</g>
<!-- check_pivot&#45;&gt;eliminate -->
<g id="edge10" class="edge">
<title>check_pivot-&gt;eliminate</title>
<path fill="none" stroke="#000000" d="M281.9606,-506.1242C304.6414,-490.3395 335.858,-462.4634 335.858,-428.6 335.858,-428.6 335.858,-428.6 335.858,-261.2 335.858,-244.6859 331.2682,-228.1119 324.6275,-212.7743"/>
<polygon fill="#000000" stroke="#000000" points="327.6513,-210.9772 320.2504,-203.3958 321.3081,-213.9377 327.6513,-210.9772"/>
<text text-anchor="middle" x="344.4113" y="-348.6" font-family="Times,serif" font-size="14.00" fill="#000000">No</text>
</g>
<!-- found -->
<g id="node11" class="node">
<title>found</title>
<polygon fill="#ffe082" stroke="#000000" points="204.858,-370.8 109.7946,-352.8 204.858,-334.8 299.9214,-352.8 204.858,-370.8"/>
<text text-anchor="middle" x="204.858" y="-348.6" font-family="Helvetica,sans-Serif" font-size="14.00" fill="#000000">¿Encontró?</text>
</g>
<!-- find_row&#45;&gt;found -->
<g id="edge11" class="edge">
<title>find_row-&gt;found</title>
<path fill="none" stroke="#000000" d="M232.4744,-407.8873C227.9256,-398.8137 222.5409,-388.0726 217.7397,-378.4955"/>
<polygon fill="#000000" stroke="#000000" points="220.796,-376.7822 213.1855,-369.4112 214.5383,-379.9193 220.796,-376.7822"/>
</g>
<!-- singular -->
<g id="node12" class="node">
<title>singular</title>
<polygon fill="#ef9a9a" stroke="#000000" points="134.0412,-281.8019 11.6749,-281.8019 11.6749,-240.5981 134.0412,-240.5981 134.0412,-281.8019"/>
<text text-anchor="middle" x="72.858" y="-265.4" font-family="Helvetica,sans-Serif" font-size="14.00" fill="#000000">mat_R = singular</text>
<text text-anchor="middle" x="72.858" y="-248.6" font-family="Helvetica,sans-Serif" font-size="14.00" fill="#000000">Error</text>
</g>
<!-- found&#45;&gt;singular -->
<g id="edge12" class="edge">
<title>found-&gt;singular</title>
<path fill="none" stroke="#000000" d="M184.233,-338.4875C164.7302,-324.9537 134.9819,-304.3102 111.1348,-287.7618"/>
<polygon fill="#000000" stroke="#000000" points="112.8571,-284.6968 102.646,-281.871 108.8662,-290.4477 112.8571,-284.6968"/>
<text text-anchor="middle" x="159.4113" y="-304.2" font-family="Times,serif" font-size="14.00" fill="#000000">No</text>
</g>
<!-- swap -->
<g id="node13" class="node">
<title>swap</title>
<polygon fill="#90caf9" stroke="#000000" points="307.8678,-281.8019 151.8482,-281.8019 151.8482,-240.5981 307.8678,-240.5981 307.8678,-281.8019"/>
<text text-anchor="middle" x="229.858" y="-265.4" font-family="Helvetica,sans-Serif" font-size="14.00" fill="#000000">Intercambiar filas k ↔ i</text>
<text text-anchor="middle" x="229.858" y="-248.6" font-family="Helvetica,sans-Serif" font-size="14.00" fill="#000000">signo = -signo</text>
</g>
<!-- found&#45;&gt;swap -->
<g id="edge13" class="edge">
<title>found-&gt;swap</title>
<path fill="none" stroke="#000000" d="M209.5603,-335.5707C212.9391,-323.1911 217.5833,-306.1746 221.5768,-291.5426"/>
<polygon fill="#000000" stroke="#000000" points="224.9574,-292.4487 224.2139,-281.88 218.2044,-290.6056 224.9574,-292.4487"/>
<text text-anchor="middle" x="227.4099" y="-304.2" font-family="Times,serif" font-size="14.00" fill="#000000">Sí</text>
</g>
<!-- swap&#45;&gt;eliminate -->
<g id="edge14" class="edge">
<title>swap-&gt;eliminate</title>
<path fill="none" stroke="#000000" d="M237.7657,-240.5369C240.8141,-232.5713 244.4958,-222.9509 248.3534,-212.8707"/>
<polygon fill="#000000" stroke="#000000" points="251.6271,-214.1088 251.9325,-203.5184 245.0895,-211.6069 251.6271,-214.1088"/>
</g>
<!-- update -->
<g id="node15" class="node">
<title>update</title>
<polygon fill="#90caf9" stroke="#000000" points="392.1775,-41.4019 273.5386,-41.4019 273.5386,-.1981 392.1775,-.1981 392.1775,-41.4019"/>
<text text-anchor="middle" x="332.858" y="-25" font-family="Helvetica,sans-Serif" font-size="14.00" fill="#000000">pivot_ant = pivot</text>
<text text-anchor="middle" x="332.858" y="-8.2" font-family="Helvetica,sans-Serif" font-size="14.00" fill="#000000">k++</text>
</g>
<!-- eliminate&#45;&gt;update -->
<g id="edge15" class="edge">
<title>eliminate-&gt;update</title>
<path fill="none" stroke="#000000" d="M305.5267,-78.4356C310.1257,-68.7372 314.6841,-59.1246 318.7218,-50.6101"/>
<polygon fill="#000000" stroke="#000000" points="321.9112,-52.0529 323.0335,-41.5176 315.5863,-49.0535 321.9112,-52.0529"/>
</g>
<!-- update&#45;&gt;check_k -->
<g id="edge16" class="edge">
<title>update-&gt;check_k</title>
<path fill="none" stroke="#000000" d="M349.9462,-41.4909C367.0548,-64.3577 390.858,-103.0005 390.858,-141 390.858,-604.4 390.858,-604.4 390.858,-604.4 390.858,-626.9529 339.6879,-664.7052 306.5221,-686.8057"/>
<polygon fill="#000000" stroke="#000000" points="304.5458,-683.9163 298.1115,-692.3336 308.3905,-689.7659 304.5458,-683.9163"/>
</g>
</g>
</svg>