<?xml version="1.0" encoding="UTF-8" standalone="no"?><!DOCTYPE svg PUBLIC "-//W3C//DTD SVG 1.1//EN" "http://www.w3.org/Graphics/SVG/1.1/DTD/svg11.dtd"><!-- Generated by graphviz version 2.40.1 (20161225.0304)
 --><!-- Title: RowMajor Pages: 1 --><svg xmlns="http://www.w3.org/2000/svg" xmlns:xlink="http://www.w3.org/1999/xlink" width="989pt" height="100pt" viewBox="0.00 0.00 988.76 100.00">
<g id="graph0" class="graph" transform="scale(1 1) rotate(0) translate(4 96)">
<title>RowMajor</title>
<polygon fill="#ffffff" stroke="transparent" points="-4,4 -4,-96 984.7572,-96 984.7572,4 -4,4"/>
<!-- logical -->
<g id="node1" class="node">
<title>logical</title>
<polygon fill="#90caf9" stroke="#000000" points="114.6468,-83.4011 .1176,-83.4011 .1176,-8.5989 114.6468,-8.5989 114.6468,-83.4011"/>
<text text-anchor="middle" x="57.3822" y="-66.6" font-family="Helvetica,sans-Serif" font-size="14.00" fill="#000000">Matriz A (m x n)</text>
<text text-anchor="middle" x="57.3822" y="-33.8" font-family="Helvetica,sans-Serif" font-size="14.00" fill="#000000">a00  a01  a02</text>
<text text-anchor="middle" x="57.3822" y="-17" font-family="Helvetica,sans-Serif" font-size="14.00" fill="#000000">a10  a11  a12</text>
</g>
<!-- memory -->
<g id="node2" class="node">
<title>memory</title>
<polygon fill="#a5d6a7" stroke="#000000" points="459.6758,-83.4011 246.304,-83.4011 246.304,-8.5989 459.6758,-8.5989 459.6758,-83.4011"/>
<text text-anchor="middle" x="352.9899" y="-66.6" font-family="Helvetica,sans-Serif" font-size="14.00" fill="#000000">Memoria contigua (row-major)</text>
<text text-anchor="middle" x="352.9899" y="-33.8" font-family="Helvetica,sans-Serif" font-size="14.00" fill="#000000">a00 | a01 | a02 | a10 | a11 | a12</text>
<text text-anchor="middle" x="352.9899" y="-17" font-family="Helvetica,sans-Serif" font-size="14.00" fill="#000000">0    8    16   24   32   40 bytes</text>
</g>
<!-- logical&#45;&gt;memory -->
<g id="edge1" class="edge">
<title>logical-&gt;memory</title>
<path fill="none" stroke="#000000" d="M114.7288,-46C149.1632,-46 194.2409,-46 235.91,-46"/>
<polygon fill="#000000" stroke="#000000" points="236.1398,-49.5001 246.1398,-46 236.1398,-42.5001 236.1398,-49.5001"/>
<text text-anchor="middle" x="180.5807" y="-50.2" font-family="Times,serif" font-size="14.00" fill="#000000">Almacenamiento</text>
</g>
<!-- example -->
<g id="node3" class="node">
<title>example</title>
<polygon fill="#ffe082" stroke="#000000" points="633.5879,-83.7003 496.5811,-83.7003 496.5811,-8.2997 633.5879,-8.2997 633.5879,-83.7003"/>
<text text-anchor="middle" x="565.0845" y="-67" font-family="Helvetica,sans-Serif" font-size="14.00" fill="#000000">Acceso A[1][2]:</text>
<text text-anchor="middle" x="565.0845" y="-50.2" font-family="Helvetica,sans-Serif" font-size="14.00" fill="#000000">indice = 1*3 + 2 = 5</text>
<text text-anchor="middle" x="565.0845" y="-33.4" font-family="Helvetica,sans-Serif" font-size="14.00" fill="#000000">offset = 5*8 = 40</text>
<text text-anchor="middle" x="565.0845" y="-16.6" font-family="Helvetica,sans-Serif" font-size="14.00" fill="#000000">addr = DATA + 40</text>
</g>
<!-- memory&#45;&gt;example -->
<g id="edge2" class="edge">
<title>memory-&gt;example</title>
<path fill="none" stroke="#000000" d="M459.6586,-46C468.6299,-46 477.5953,-46 486.2979,-46"/>
<polygon fill="#000000" stroke="#000000" points="486.378,-49.5001 496.378,-46 486.3779,-42.5001 486.378,-49.5001"/>
</g>
<!-- formula -->
<g id="node4" class="node">
<title>formula</title>
<polygon fill="#90caf9" stroke="#000000" points="818.3211,-83.7003 670.3407,-83.7003 670.3407,-8.2997 818.3211,-8.2997 818.3211,-83.7003"/>
<text text-anchor="middle" x="744.3309" y="-67" font-family="Helvetica,sans-Serif" font-size="14.00" fill="#000000">Fórmula general:</text>
<text text-anchor="middle" x="744.3309" y="-50.2" font-family="Helvetica,sans-Serif" font-size="14.00" fill="#000000">indice = i*COLS + j</text>
<text text-anchor="middle" x="744.3309" y="-33.4" font-family="Helvetica,sans-Serif" font-size="14.00" fill="#000000">offset = indice * 8</text>
<text text-anchor="middle" x="744.3309" y="-16.6" font-family="Helvetica,sans-Serif" font-size="14.00" fill="#000000">addr = DATA + offset</text>
</g>
<!-- example&#45;&gt;formula -->
<g id="edge3" class="edge">
<title>example-&gt;formula</title>
<path fill="none" stroke="#000000" d="M633.6171,-46C642.3777,-46 651.4232,-46 660.3925,-46"/>
<polygon fill="#000000" stroke="#000000" points="660.4676,-49.5001 670.4675,-46 660.4675,-42.5001 660.4676,-49.5001"/>
</g>
<!-- asm -->
<g id="node5" class="node">
<title>asm</title>
<polygon fill="#ef9a9a" stroke="#000000" points="980.5984,-92 855.2344,-92 855.2344,0 980.5984,0 980.5984,-92"/>
<text text-anchor="middle" x="917.9164" y="-75.4" font-family="Helvetica,sans-Serif" font-size="14.00" fill="#000000">ARM64:</text>
<text text-anchor="middle" x="917.9164" y="-58.6" font-family="Helvetica,sans-Serif" font-size="14.00" fill="#000000">mul x0, i, COLS</text>
<text text-anchor="middle" x="917.9164" y="-41.8" font-family="Helvetica,sans-Serif" font-size="14.00" fill="#000000">add x0, x0, j</text>
<text text-anchor="middle" x="917.9164" y="-25" font-family="Helvetica,sans-Serif" font-size="14.00" fill="#000000">lsl x0, x0, #3</text>
<text text-anchor="middle" x="917.9164" y="-8.2" font-family="Helvetica,sans-Serif" font-size="14.00" fill="#000000">ldr x1, [DATA, x0]</text>
</g>
<!-- formula&#45;&gt;asm -->
<g id="edge4" class="edge">
<title>formula-&gt;asm</title>
<path fill="none" stroke="#000000" d="M818.1985,-46C827.0195,-46 836.0228,-46 844.8327,-46"/>
<polygon fill="#000000" stroke="#000000" points="845.0636,-49.5001 855.0635,-46 845.0635,-42.5001 845.0636,-49.5001"/>
</g>
</g>
</svg>